<?xml version="1.0" encoding="UTF-8"?>
<!DOCTYPE svg PUBLIC "-//W3C//DTD SVG 1.1//EN" "http://www.w3.org/Graphics/SVG/1.1/DTD/svg11.dtd">
<!-- Creator: CorelDRAW X5 -->
<svg xmlns="http://www.w3.org/2000/svg" xml:space="preserve" width="78mm" height="60mm" style="shape-rendering:geometricPrecision; text-rendering:geometricPrecision; image-rendering:optimizeQuality; fill-rule:evenodd; clip-rule:evenodd"
viewBox="0 0 7800 6000"
 xmlns:xlink="http://www.w3.org/1999/xlink">
 <defs>
  <style type="text/css">
   <![CDATA[
    .fil1 {fill:#F1D4CA}
    .fil0 {fill:url(#id0)}
   ]]>
  </style>
 <!-- <linearGradient id="id0" gradientUnits="userSpaceOnUse" x1="1666.18" y1="535.24" x2="6131.11" y2="5464.57">
   <stop offset="0" style="stop-color:#CD3333"/>
   <stop offset="1" style="stop-color:#992828"/>
  </linearGradient> -->
 </defs>
 <g id="Ebene_x0020_1">
  <metadata id="CorelCorpID_0Corel-Layer"/>
  <rect class="fil0" x="304" y="304" width="7188" height="5391"/>
  <path class="fil1" d="M2221 5044l-18 -57c-40,-129 -53,-254 -43,-404 19,-271 138,-459 287,-616 -41,-129 -64,-265 -64,-407 0,-380 161,-725 422,-975 193,-185 440,-317 716,-373 144,-521 239,-1055 277,-1559l0 0c57,441 147,1015 290,1554 286,53 541,188 740,378 260,250 422,594 422,975 0,133 -20,261 -56,383 193,95 409,151 657,173l35 3 -11 33c-25,74 -99,124 -159,163l-4 3c-124,82 -332,181 -625,181l0 0c-32,0 -64,-1 -97,-4 -38,-3 -75,-7 -111,-12 -16,17 -33,34 -51,51 -260,249 -617,403 -1011,403 -394,0 -752,-154 -1011,-403 -9,-8 -17,-17 -26,-25 -219,115 -396,278 -526,484l-32 50 0 0zm376 -1220c31,-27 62,-54 93,-81 144,-124 280,-241 373,-394l23 -37 24 36c177,265 341,550 500,826l46 80 22 39 -45 3c-252,15 -478,60 -674,134 224,202 526,326 858,326 324,0 619,-118 841,-311 -56,-12 -110,-26 -164,-39 -168,-41 -328,-81 -512,-89l-42 -2 18 -38c87,-178 197,-358 303,-532 78,-127 158,-258 229,-388l22 -40 25 38c143,211 304,374 492,496 24,-93 37,-190 37,-290 0,-329 -140,-627 -365,-844 -152,-146 -343,-254 -558,-310 66,224 143,437 230,628l6 12 -6 12c-87,168 -184,328 -278,483 -85,141 -174,286 -253,436l-21 40 0 0 -26 -38c-125,-182 -240,-377 -353,-566 -65,-110 -132,-223 -200,-332l-7 -12 5 -13c82,-209 157,-424 223,-643 -203,57 -385,163 -531,303 -226,216 -365,515 -365,844 0,91 11,179 31,264z"/>
 </g>
</svg>
